<svg xmlns="http://www.w3.org/2000/svg" width="18" height="36" viewBox="0 0 18 36">
  <defs>
    <style>
      .cls-1 {
        fill: #fff;
        fill-rule: evenodd;
      }
    </style>
  </defs>
  <path id="シェイプ_11" data-name="シェイプ 11" class="cls-1" d="M11.868,35.974c-0.175.007-.287,0.022-0.4,0.022-2.4,0-4.788-.007-7.185.007-0.337,0-.428-0.093-0.428-0.436q0.011-8.529.007-17.065V18.008H0V11.937H0.379c1.052,0,2.1-.007,3.155.007A0.276,0.276,0,0,0,3.87,11.6c-0.014-1.593-.014-3.192,0-4.785a7.14,7.14,0,0,1,.687-3.208A6.026,6.026,0,0,1,7.866.693,10.261,10.261,0,0,1,11.532.029C13.565,0,15.6.014,17.631,0.007c0.189,0,.343-0.007.343,0.265q-0.011,2.947-.007,5.893a0.593,0.593,0,0,1-.035.136H17.547c-1.262,0-2.524-.007-3.786,0a1.828,1.828,0,0,0-1.689.95,1.4,1.4,0,0,0-.182.671c-0.021,1.215,0,2.429-.014,3.643a0.294,0.294,0,0,0,.358.365c1.752-.014,3.505-0.007,5.258-0.007H18c-0.245,2.043-.484,4.044-0.729,6.064h-5.4V35.974Z"/>
</svg>
