<svg xmlns="http://www.w3.org/2000/svg" width="35" height="36" viewBox="0 0 35 36">
  <defs>
    <style>
      .cls-1 {
        fill: #fff;
        fill-rule: evenodd;
      }
    </style>
  </defs>
  <path id="シェイプ_2" data-name="シェイプ 2" class="cls-1" d="M24.941,0H10.06A10.117,10.117,0,0,0,0,10.174V25.826A10.117,10.117,0,0,0,10.06,36H24.941A10.117,10.117,0,0,0,35,25.826V10.174A10.117,10.117,0,0,0,24.941,0ZM3.571,10.174A6.533,6.533,0,0,1,10.06,3.611H24.941a6.532,6.532,0,0,1,6.488,6.562V25.826a6.533,6.533,0,0,1-6.488,6.562H10.06a6.533,6.533,0,0,1-6.488-6.562V10.174ZM17.5,27.271A9.271,9.271,0,1,0,8.334,18,9.23,9.23,0,0,0,17.5,27.271Zm0-15.652A6.382,6.382,0,1,1,11.191,18,6.353,6.353,0,0,1,17.5,11.618ZM26.935,6.38a2.077,2.077,0,1,1-2.054,2.078A2.066,2.066,0,0,1,26.935,6.38Z"/>
</svg>
