<svg xmlns="http://www.w3.org/2000/svg" width="1348" height="6390" viewBox="0 0 1348 6390">
  <defs>
    <style>
      .cls-1 {
        fill: #fff;
        fill-rule: evenodd;
      }
    </style>
  </defs>
  <path id="UKIYO-E" class="cls-1" d="M1305.31,416.707q-8.5,0-9.28,6.185-3.87,51.026-18.94,60.3-19.71,11.6-100.12,12.756l-128.72.773H953.93q-82.725,0-122.538-38.655-45.227-42.908-45.227-126.79,0-71.52,46-121.379a102.594,102.594,0,0,1,41.748-27.446q30.533-10.437,91.227-10.437l109.78,0.774h102.05q83.505,0,100.12,9.663a28.392,28.392,0,0,1,11.6,13.916q4.245,11.6,7.34,44.841,0.78,6.958,9.28,6.958,12.75,0,12.76-6.958-3.1-59.922-3.1-102.437,0-40.209,3.1-103.211,0-6.958-12.76-6.958-8.5,0-9.28,6.958-4.635,55.274-18.94,63.782-13.92,7.728-84.27,7.731H1076.47L924.552,105.53q-75.768,0-119.446,46-62.622,66.1-62.622,173.95,0,85.036,50.639,144.959,50.635,59.523,143.412,59.529,44.448,0,144.185,1.547l96.25,1.546q79.245,1.159,98.96,14.3,14.685,9.659,20.1,55.278,0.78,6.957,9.28,6.958,12.75,0,12.76-6.958-3.1-57.984-3.1-89.295,0-25.9,3.1-90.454,0-6.187-12.76-6.185h0ZM842.216,993.449q-35.951,32.477-83.883,69.971,0.769,23.565.773,57.59,0,37.5-3.092,71.52,0,6.945,10.437,6.95,9.277,0,10.05-6.95,4.249-34.8,12.757-51.03,14.685-27.06,73.445-81.56,196.365-177.824,213-192.122,3.855,3.86,20.1,21.261,15.84,17.006,28.21,30.151L1193.6,995q66.48,72.278,80.01,93.545,18.165,28.605,22.42,66.49,0.78,7.335,10.05,7.34,11.985,0,11.99-6.95-3.87-50.265-3.87-91.23,0-32.085,1.55-86.976,0-8.118-11.21-8.118-8.505,0-9.28,7.731-2.325,24.734-5.41,33.633-3.48,8.49-11.99,8.5-17.01,0-73.83-58.755L1118.6,873.23q-31.3-31.311-60.3-65.714h118.67q82.725,0,100.12,10.437,13.92,8.888,18.94,56.823,0.78,7.34,9.28,7.345,12.75,0,12.76-7.345-3.87-49.866-3.87-98.958,0-52.575,3.87-103.984,0-6.187-12.76-6.185-8.5,0-9.28,6.185-3.87,52.956-18.94,63.4-8.5,5.409-22.03,6.959-17.4,1.929-78.09,1.932H899.426q-87.365,0-103.984-9.664Q780.367,725.179,776.5,675.7q-0.779-6.958-10.05-6.958-10.437,0-10.437,6.958,3.088,56.434,3.092,100.118,0,39.039-3.092,103.21,0,6.958,10.437,6.958,9.277,0,10.05-6.958,4.64-53.733,18.941-61.849a51.507,51.507,0,0,1,21.261-7.731q15.456-1.938,69.967-1.932h163.9Q888.6,950.925,842.216,993.449h0ZM766.451,1233.89q-10.437,0-10.437,6.18,3.088,56.43,3.092,99.35,0,42.9-3.092,105.53,0,7.725,10.437,7.73,9.277,0,10.05-7.73,2.7-30.93,6.572-44.07,3.859-12.765,12.369-18.56,13.917-9.66,73.833-9.66h307.7q83.88,0,100.12,10.44,13.92,8.88,18.94,57.59,0.78,8.13,9.28,8.12,12.75,0,12.76-8.12-3.87-73.44-3.87-101.27,0-25.14,3.87-103.21,0-6.2-12.76-6.19-8.5,0-9.28,6.19-4.635,53.34-18.94,62.62-8.895,6.18-21.65,7.73-16.62,1.935-78.47,1.93H899.426q-53.345,0-73.446-1.93-19.333-1.545-30.538-8.5-15.075-8.91-18.941-57.6c-0.773-4.39-4.125-6.57-10.05-6.57h0Zm216.858,474.3H886.67q-75,0-91.228-10.44-15.075-9.27-18.941-56.05-0.779-8.9-10.05-8.89-10.437,0-10.437,8.89,3.088,54.51,3.092,98.19,0,39.03-3.092,107.85,0,4.635,10.437,4.64,8.887,0,10.05-6.19,3.86-56.055,18.941-64.94,14.686-8.895,83.11-8.89H982.535l34.8,0.77q30.915,18.945,58.37,35.57l117.12,73.83q71.9,44.445,83.11,59.14,16.62,20.1,20.1,55.66,0.78,6.18,9.28,6.19,12.75,0,12.76-6.19-3.87-73.83-3.87-83.49,0-18.945,3.87-92.39,0-8.115-12.76-8.12-8.5,0-9.28,8.12-1.545,30.15-8.5,42.91-6.585,12.36-21.65,12.37-13.14,0-55.66-24.35l-116.36-65.72q-25.5-15.855-44.06-26.28,5.01-3.105,20.87-12.76,15.075-8.895,25.13-15.46l119.44-72.29q38.655-22.815,52.19-22.81,13.14,0,18.55,8.12,6.18,9.66,10.05,44.84,0.78,6.18,9.28,6.19,12.75,0,12.76-6.19-3.87-50.25-3.87-100.89,0-46.38,3.87-100.5,0-6.2-12.76-6.19-8.5,0-9.28,6.19-3.09,37.11-20.1,54.89-12.75,12.75-87.75,58.75l-118.67,72.68q-9.66,5.79-25.13,14.69-22.02,13.125-29.37,17.78Zm274.451,395.83q-84.645-91.605-220.72-91.61-118.287,0-199.85,71.51-93.933,82.335-93.933,215.32,0,115.575,73.446,195.21,84.656,92,221.887,92,119.055,0,199.85-71.52,92.37-81.945,92.38-215.69,0-115.59-73.06-195.22h0Zm-17.78,337.08q-75.375,67.65-203.71,67.65-110.563,0-182.844-52.19-82.337-59.145-82.337-157.32,0-85.83,63.782-142.64,74.6-66.495,203.719-66.49,109.77,0,182.45,52.18,82.725,59.145,82.72,156.95,0,84.255-63.78,141.86h0Zm-238.89,257.06H947.359v184.39h53.731V2698.16ZM885.9,3429.14l3.866,0.77q8.888,0,8.891-15.07c0-2.32-1.806-4.26-5.412-5.8q-56.053-27.45-79.244-59.15a139.238,139.238,0,0,1-22.034-49.09q-8.116-32.475-8.117-90.45,0-36.345,4.252-53.35,4.638-17.01,17.008-25.51,16.617-11.22,94.32-11.21H1037.04q1.545,25.89,1.55,50.64,0,81.945-15.08,102.82-15.075,22.035-58.756,25.52-7.737.765-7.731,8.5,0,11.97,6.958,11.98,55.664-1.545,88.909-1.54,23.565,0,77.7,1.54,6.96,0,6.95-11.98,0-7.74-6.95-8.5-34.41-3.48-50.64-23.97-15.855-19.335-15.85-104.37,0-37.11.77-50.64h139.94q53.34,0,66.1,8.5,18.93,12.765,18.94,69.2,0,90.45-23.2,119.44-26.28,33.24-78.47,50.64-4.635,1.935-4.64,6.19,0,12.75,6.96,12.75h2.32q25.515-3.48,125.25-13.53-3.87-83.115-3.87-192.11,0-117.915,3.87-197.53,0-6.96-12.76-6.96-8.5,0-9.28,6.96-3.87,52.95-18.17,62.62-8.5,5.4-21.64,6.96-17.4,1.92-79.25,1.93H899.426q-89.684,0-103.984-9.67a32.883,32.883,0,0,1-11.6-14.68q-4.259-11.61-7.345-42.91-1.159-6.2-10.05-6.19-10.437,0-10.437,6.19,4.248,108.615,4.252,203.71,0,85.035-4.252,195.99,67.641,27.045,129.882,41.36h0Z"/>
  <path id="EXHIBITION" class="cls-1" d="M268.4,1815.2l3.866,0.77q8.887,0,8.891-15.08,0-3.48-5.412-5.8-56.054-27.45-79.244-59.14a139.318,139.318,0,0,1-22.034-49.09q-8.117-32.475-8.117-90.46,0-36.33,4.252-53.34,4.638-17.01,17.008-25.51,16.617-11.22,94.32-11.21H419.541q1.541,25.89,1.546,50.64,0,81.945-15.076,102.82-15.075,22.035-58.756,25.51-7.737.78-7.731,8.51,0,11.97,6.958,11.98,55.663-1.545,88.908-1.55,23.574,0,77.7,1.55,6.958,0,6.958-11.98,0-7.74-6.958-8.51-34.408-3.48-50.638-23.96-15.855-19.335-15.849-104.37,0-37.11.773-50.64H587.306q53.344,0,66.1,8.5,18.936,12.765,18.942,69.19,0,90.465-23.194,119.45-26.292,33.24-78.471,50.64-4.638,1.935-4.638,6.18,0,12.765,6.958,12.76h2.319q25.512-3.48,125.244-13.53-3.868-83.115-3.865-192.12,0-117.9,3.865-197.53,0-6.96-12.756-6.96-8.508,0-9.278,6.96-3.869,52.965-18.168,62.62-8.507,5.415-21.647,6.96-17.4,1.935-79.244,1.94H281.927q-89.684,0-103.984-9.67a32.857,32.857,0,0,1-11.6-14.69q-4.258-11.6-7.345-42.91-1.159-6.18-10.05-6.18-10.437,0-10.437,6.18,4.248,108.63,4.252,203.72,0,85.035-4.252,195.98,67.641,27.06,129.882,41.37h0Zm138,243.14q-16.236-11.22-25.513-17.78l-117.126-81.57q-67.65-46.77-85.043-64.94-16.235-16.23-19.714-47.54-0.779-6.96-10.05-6.96-10.437,0-10.437,6.96,3.089,52.95,3.092,84.27,0,39.42-3.092,95.86,0,6.96,10.437,6.96,9.278,0,10.05-7.35,2.7-36.72,8.5-50.25,5.409-13.14,19.328-13.14,20.484,0,66.488,30.15l102.051,65.72,46.773,31.69L253.322,2183.2q-47.937,30.15-66.488,30.15-12.756,0-18.555-8.51-7.347-10.05-9.277-40.58-0.779-8.13-10.05-8.12-10.437,0-10.437,8.12,3.089,58.74,3.092,104.37,0,37.485-3.092,96.63,0,6.96,10.437,6.96,9.278,0,10.05-6.96,3.09-34.02,19.714-52.95,11.6-13.92,92-64.95l176.656-112.48q32.47,25.89,36.336,29.38l98.185,71.89q69.58,51.03,76.538,61.08,17.005,21.645,20.1,56.44,0.771,6.96,9.278,6.96,12.756,0,12.756-6.96-3.868-48.705-3.865-83.5,0-43.29,3.865-93.55,0-7.725-12.756-7.73-8.508,0-9.278,7.73-2.709,31.7-7.731,43.69-5.028,12.75-17.008,12.75-18.945,0-59.916-28.6l-86.589-59.15q-8.506-5.79-36.336-26.28L590.4,2042.1q46-28.98,62.622-28.99,11.207,0,16.235,8.51,6.179,10.035,9.277,43.68,0.771,7.725,9.278,7.73,12.756,0,12.756-7.73-3.868-51.42-3.865-102.44,0-43.3,3.865-95.87,0-6.96-12.756-6.95-8.508,0-9.278,6.95-3.478,35.955-20.1,52.58-9.276,9.645-83.109,56.82l-148.051,96.64q-6.959-4.635-20.874-14.69h0Zm13.143,640.91q0,97.41-3.866,148.82H281.927q-88.914,0-105.53-9.27-13.536-8.13-18.168-57.99-0.779-6.96-9.277-6.96-10.437,0-10.437,6.96,3.089,56.04,3.092,100.51,0,39.42-3.092,106.3,0,6.18,10.437,6.18,8.5,0,9.277-6.18,2.7-33.255,6.571-47.16,3.48-12.375,11.6-18.17a52.735,52.735,0,0,1,18.941-6.18q16.617-2.325,68.421-2.32H559.474q85.815,0,100.891,9.66,14.3,9.285,18.168,59.53,0.771,7.725,9.278,7.73,12.756,0,12.756-7.73-3.868-76.155-3.865-101.66,0-26.685,3.865-104.76,0-6.96-12.756-6.96-8.508,0-9.278,7.35-4.638,54.105-18.168,62.23-14.306,8.9-100.891,8.89H450.465q-2.319-51.405-2.319-148.82,0-98.97,2.319-152.69H578.8q64.941,0,81.563,9.66a25.314,25.314,0,0,1,10.437,13.15q3.859,11.205,7.731,45.22,1.161,8.115,9.278,8.12,12.756,0,12.756-8.12-3.868-73.83-3.865-100.5,0-24.75,3.865-104.76,0-6.18-12.756-6.18-8.508,0-9.278,6.18-4.638,56.04-18.168,63.4-16.624,8.88-100.891,8.89H281.927q-92.393,0-105.53-9.67-7.347-5.025-10.823-14.69-4.258-11.6-7.345-44.84-0.779-6.18-9.277-6.18-10.437,0-10.437,6.18,3.089,59.145,3.092,101.67,0,42.12-3.092,104.37,0,8.115,10.437,8.12,8.5,0,9.277-8.12,4.638-55.29,18.168-63.4a55.4,55.4,0,0,1,19.328-6.57q14.686-1.935,65.328-1.93H415.675q3.859,53.73,3.866,152.69h0Zm-270.589,359.5q-10.437,0-10.437,6.18,3.089,56.43,3.092,99.35,0,42.9-3.092,105.53,0,7.725,10.437,7.73,9.278,0,10.05-7.73,2.7-30.945,6.572-44.07,3.859-12.765,12.369-18.56,13.917-9.66,73.833-9.66h307.7q83.877,0,100.118,10.44,13.917,8.88,18.941,57.59,0.771,8.115,9.278,8.12,12.756,0,12.756-8.12-3.868-73.44-3.865-101.27,0-25.14,3.865-103.22,0-6.18-12.756-6.18-8.508,0-9.278,6.18-4.638,53.355-18.941,62.63-8.9,6.18-21.647,7.73-16.625,1.92-78.471,1.93H281.927q-53.345,0-73.446-1.93-19.333-1.545-30.538-8.51-15.075-8.895-18.941-57.59c-0.773-4.39-4.125-6.57-10.05-6.57h0Zm290.3,575.58q19.715,68.415,49.479,101.27,32.472,35.955,84.27,35.95,59.523,0,90.454-39.04,38.649-47.55,38.655-158.87l-4.638-131.82q0-32.85,3.092-97.41,0-6.96-11.983-6.96-9.277,0-10.051,6.96-3.869,55.665-18.168,65.33-7.347,4.635-20.487,6.18-18.945,2.325-80.4,2.32H281.927q-87.365,0-103.984-9.66-15.075-8.505-18.941-60.3-1.159-6.2-10.05-6.19-10.437,0-10.437,6.19,2.319,43.275,2.319,95.09l-3.866,139.55q0,103.2,38.269,160.42,40.97,61.455,118.287,61.46,52.565,0,87.748-35.95,43.677-44.07,53.345-134.52h4.638Zm120.219-151.92q83.5,0,98.185,9.66,17.4,11.985,17.395,71.9,0,63.015-25.9,97.8-28.221,37.89-82.336,37.89-121,0-120.992-172.8,0-31.7.773-44.45H559.474Zm-139.933,54.51q0,193.275-126.4,193.27-56.053,0-89.294-32.85-40.588-39.435-40.589-118.29,0-70.74,21.261-84.66a69.326,69.326,0,0,1,25.126-8.89q19.325-3.09,72.286-3.09H418.768q0.77,21.255.773,54.51h0Zm-270.589,350.6q-10.437,0-10.437,6.19,3.089,56.43,3.092,99.34t-3.092,105.53q0,7.725,10.437,7.73,9.278,0,10.05-7.73,2.7-30.93,6.572-44.07,3.859-12.75,12.369-18.55,13.917-9.675,73.833-9.66h307.7q83.877,0,100.118,10.43,13.917,8.895,18.941,57.6,0.771,8.115,9.278,8.12,12.756,0,12.756-8.12-3.868-73.455-3.865-101.28,0-25.125,3.865-103.21,0-6.18-12.756-6.18-8.508,0-9.278,6.18-4.638,53.34-18.941,62.62-8.9,6.18-21.647,7.73-16.625,1.935-78.471,1.94H281.927q-53.345,0-73.446-1.94-19.333-1.545-30.538-8.5-15.075-8.895-18.941-57.6-1.159-6.57-10.05-6.57h0ZM696.7,4422.9q0-138.78,3.865-244.69-51.416-4.26-127.563-14.3h-2.32q-6.957,0-6.958,13.53,0,3.48,4.639,5.41,56.435,20.88,81.563,52.19,22.033,28.59,22.034,91.22,0,44.445-14.3,53.73-14.306,9.66-79.63,9.67H275.355q-80.406,0-96.639-10.44-14.694-9.27-18.941-59.53-0.779-6.96-10.05-6.96-11.217,0-11.21,6.96,3.089,57.6,3.092,102.44,0,43.68-3.092,107.46,0,7.335,11.21,7.35c6.185,0,9.531-2.46,10.05-7.35q2.7-32.085,6.185-45.23,3.859-13.9,12.756-20.48,8.889-6.2,22.034-8.12,15.456-1.935,69.194-1.93h289.53q49.087,0,67.647,1.93,17.777,1.935,28.992,8.89,8.887,5.805,11.983,14.69,3.86,10.815,3.866,39.43,0,66.48-22.034,93.93-25.133,31.3-81.563,50.64-4.639,1.935-4.639,6.57,0,13.53,6.958,13.53h3.093q78.468-9.66,126.79-13.53Q696.7,4564,696.7,4422.9h0Zm-547.75,322.78q-10.437,0-10.437,6.18,3.089,56.43,3.092,99.35,0,42.9-3.092,105.53,0,7.725,10.437,7.73,9.278,0,10.05-7.73,2.7-30.93,6.572-44.07,3.859-12.765,12.369-18.56,13.917-9.66,73.833-9.66h307.7q83.877,0,100.118,10.44,13.917,8.88,18.941,57.59,0.771,8.13,9.278,8.12,12.756,0,12.756-8.12-3.868-73.44-3.865-101.27,0-25.14,3.865-103.21,0-6.195-12.756-6.19-8.508,0-9.278,6.19-4.638,53.34-18.941,62.62-8.9,6.18-21.647,7.73-16.625,1.935-78.471,1.93H281.927q-53.345,0-73.446-1.93-19.333-1.545-30.538-8.51-15.075-8.9-18.941-57.59c-0.773-4.39-4.125-6.57-10.05-6.57h0Zm491.312,388.48q-84.655-91.6-220.723-91.61-118.287,0-199.85,71.51-93.933,82.335-93.933,215.32,0,115.575,73.446,195.21,84.655,91.995,221.883,92,119.057,0,199.85-71.52,92.383-81.945,92.386-215.69,0-115.59-73.059-195.22h0Zm-17.781,337.08q-75.379,67.65-203.715,67.65-110.559,0-182.841-52.19-82.336-59.145-82.337-157.32,0-85.815,63.782-142.64,74.6-66.495,203.715-66.49,109.779,0,182.455,52.18,82.716,59.145,82.723,156.95,0,84.255-63.782,141.86h0ZM264.532,6065.76q-75.378,52.965-136.454,90.07c-2.579,1.8-3.866,3.61-3.866,5.41q0,1.935,20.488,35.18,60.3-1.545,95.865-1.55,12.757-.39,39.816-0.38l279.093,5.02q81.946,1.17,100.118,13.53,15.077,10.44,18.941,53.73,1.931,7.74,9.278,7.73,12.756,0,12.756-7.73-3.1-56.43-3.092-88.9,0-23.985,3.092-88.53,0-6.945-12.756-6.95-8.508,0-9.278,6.95-4.257,50.64-18.941,60.31-19.715,13.53-100.118,13.53l-230,.77H232.061q37.489-25.125,109.782-75.38l261.312-183.61q54.5-38.655,95.866-60.31-0.78-34.02-.773-71.89,0-32.1,2.319-73.06,0-7.74-13.529-7.73-8.508,0-9.278,7.73-5.418,51.405-23.193,64.94-17.4,13.14-81.563,11.98l-292.623-4.64q-80.017-1.155-102.438-13.53-15.855-8.895-20.487-54.89-0.78-7.74-9.277-7.73-9.667,0-9.664,7.73,2.319,76.92,2.319,90.46,0,17.385-1.546,58.75-0.39,20.49-.773,31.7,0,6.18,9.664,6.18,8.117,0,9.277-6.18,3.859-51.03,19.714-61.08,18.555-11.6,103.211-12.75l337.077-3.09v8.89Z"/>
</svg>
