<svg xmlns="http://www.w3.org/2000/svg" width="180" height="180" viewBox="0 0 180 180">
  <defs>
    <style>
      .cls-1 {
        fill: #fff;
      }

      .cls-2 {
        fill: #010000;
        fill-rule: evenodd;
      }
    </style>
  </defs>
  <circle id="楕円形_1" data-name="楕円形 1" class="cls-1" cx="90" cy="90" r="90"/>
  <path id="_1.1" data-name="1.1" class="cls-2" d="M52.869,93.709c-1.265,7.19-2.316,13.158-3.088,16.321-0.709,2.8-1.5,4.027-4.2,4.243a26.153,26.153,0,0,1-2.77.215,0.973,0.973,0,0,0-1.108.575c-0.063.36,0.343,0.5,1.134,0.5,4.6,0,8.522-.216,8.882-0.216s2.766,0.216,8.159.216c0.863,0,1.248-.144,1.311-0.5,0.076-.431-0.318-0.647-1.024-0.719-0.491-.071-1.053-0.143-1.9-0.215-2.335-.216-2.623-1.438-2.374-3.667,0.341-3.164,1.324-9.563,2.589-16.753,2.885-16.393,6.025-31.78,6.063-32,0.127-.719.266-1.51-0.309-1.51a4.708,4.708,0,0,0-1.877.863c-5.146,3.092-8.169,4.745-13.315,7.837a1.419,1.419,0,0,0-.63.719c-0.051.288,0.368,0.359,0.584,0.359,0.359,0,5.569-2.229,7.367-2.229,0.935,0,.927.863,0.674,2.3ZM84.4,115.926a4.6,4.6,0,0,0,4.422-3.882,2.93,2.93,0,0,0-3.009-3.739,4.688,4.688,0,0,0-4.481,3.811A3.041,3.041,0,0,0,84.4,115.926Zm35.4-22.217c-1.266,7.19-2.316,13.158-3.089,16.321-0.709,2.8-1.5,4.027-4.2,4.243a26.17,26.17,0,0,1-2.771.215,0.971,0.971,0,0,0-1.107.575c-0.064.36,0.342,0.5,1.133,0.5,4.6,0,8.522-.216,8.882-0.216s2.766,0.216,8.158.216c0.863,0,1.248-.144,1.311-0.5,0.076-.431-0.317-0.647-1.024-0.719-0.49-.071-1.053-0.143-1.9-0.215-2.335-.216-2.623-1.438-2.374-3.667,0.341-3.164,1.323-9.563,2.589-16.753,2.885-16.393,6.024-31.78,6.062-32,0.127-.719.266-1.51-0.309-1.51a4.706,4.706,0,0,0-1.878.863c-5.145,3.092-8.169,4.745-13.314,7.837a1.418,1.418,0,0,0-.63.719c-0.051.288,0.368,0.359,0.584,0.359,0.359,0,5.569-2.229,7.366-2.229,0.935,0,.927.863,0.674,2.3Z"/>
  <path id="OPEN" class="cls-2" d="M59.455,152.793c6.266,0,10.374-4.81,10.374-10.634,0-6.059-4.368-9.751-10.218-9.751a10.066,10.066,0,0,0-10.244,10.167C49.367,147.255,52.331,152.793,59.455,152.793Zm0.7-.988c-4.68,0-8.32-3.9-8.32-9.958,0-5.7,3.25-8.555,7.592-8.555,4.108,0,7.9,3.354,7.9,9.595C67.334,150.453,62.5,151.805,60.158,151.805ZM76.9,144.889c0,2.5,0,4.55-.13,5.642-0.1.754-.234,1.326-0.754,1.43a4.015,4.015,0,0,1-.78.1,0.169,0.169,0,0,0-.208.156c0,0.156.13,0.208,0.416,0.208,0.78,0,2.418-.078,2.5-0.078,0.13,0,1.768.078,3.2,0.078,0.286,0,.416-0.078.416-0.208a0.169,0.169,0,0,0-.208-0.156,11.342,11.342,0,0,1-1.17-.1c-0.78-.1-0.936-0.676-1.014-1.43-0.13-1.092-.13-3.146-0.13-5.642V134.2a0.457,0.457,0,0,1,.208-0.494,3.2,3.2,0,0,1,1.118-.156,4.516,4.516,0,0,1,3.562,1.3,5.365,5.365,0,0,1,1.456,3.8,4.286,4.286,0,0,1-4.5,4.447c-0.546,0-.7.026-0.7,0.234a0.246,0.246,0,0,0,.286.182,3.841,3.841,0,0,0,.546.026c3.692,0,6.4-2.5,6.4-5.877a4.74,4.74,0,0,0-1.3-3.406c-0.416-.39-1.586-1.482-4.836-1.482-1.2,0-2.7.078-3.276,0.078-0.208,0-1.768-.078-2.938-0.078-0.286,0-.416.052-0.416,0.208a0.182,0.182,0,0,0,.208.156,4.863,4.863,0,0,1,.884.078,1.277,1.277,0,0,1,1.118,1.482c0.052,0.832.052,1.56,0.052,5.617v4.576Zm17.212,0c0,2.314-.026,3.64-0.052,4.654-0.052,1.95-.39,2.314-0.936,2.444a3.358,3.358,0,0,1-.6.078,0.3,0.3,0,0,0-.286.156c0,0.156.13,0.208,0.416,0.208,0.676,0.026,1.3-.078,1.924-0.078,1.014,0,2.21.052,3.25,0.078,1.014,0.026,1.872.078,3.8,0.078,1.014,0,1.222,0,1.4-.676,0.13-.546.338-2.314,0.338-2.522,0-.182,0-0.39-0.156-0.39-0.13,0-.182.1-0.234,0.39-0.208,1.118-.494,1.664-1.326,1.924a8.622,8.622,0,0,1-2.34.234,6.29,6.29,0,0,1-2.158-.234c-0.65-.26-0.806-0.832-0.858-1.9-0.026-.546,0-3.562,0-4.446V142.6a0.164,0.164,0,0,1,.182-0.182c0.442,0,3.016.052,3.718,0.13a1.306,1.306,0,0,1,1.352.858,2.349,2.349,0,0,1,.1.728c0,0.208.026,0.416,0.182,0.416,0.1,0,.156-0.13.182-0.39,0.026-.364.026-0.962,0.1-1.768,0.078-.858.208-1.3,0.208-1.456s-0.052-.208-0.13-0.208a0.528,0.528,0,0,0-.312.26,1.641,1.641,0,0,1-1.3.442c-0.6.052-3.8,0.052-4.134,0.052-0.13,0-.156-0.078-0.156-0.26v-7.177c0-.182.052-0.26,0.156-0.26,0.286,0,3.12.026,3.562,0.078,1.144,0.1,1.69.364,1.872,0.962a2.591,2.591,0,0,1,.13.858c0,0.208.052,0.338,0.208,0.338a0.437,0.437,0,0,0,.208-0.442c0.052-.676.078-1.17,0.1-1.56a11.311,11.311,0,0,1,.208-1.222c0-.13-0.026-0.234-0.1-0.234a0.631,0.631,0,0,0-.286.1,4.332,4.332,0,0,1-1.2.156c-0.6.026-5.772,0.026-5.954,0.026-1.638-.078-2.34-0.078-2.938-0.078-0.286,0-.416.052-0.416,0.208,0,0.1.156,0.13,0.338,0.156a6.128,6.128,0,0,1,.754.078,1.277,1.277,0,0,1,1.118,1.482c0.052,0.832.052,1.56,0.052,5.617v4.576Zm16.562,3.718c0,2.366-.13,3.12-0.78,3.3a3.736,3.736,0,0,1-1.067.156,0.169,0.169,0,0,0-.208.156c0,0.182.156,0.208,0.416,0.208,1.171,0,2.263-.078,2.5-0.078s1.274,0.078,2.756.078c0.312,0,.468-0.052.468-0.208a0.169,0.169,0,0,0-.208-0.156,5.7,5.7,0,0,1-1.3-.156c-0.7-.208-0.962-0.884-1.014-3.016L111.9,136.438c0.832,0.936,3.77,4.213,6.786,7.463,2.756,2.964,6.5,6.786,6.786,7.046,1.378,1.378,1.69,1.664,1.9,1.664,0.182,0,.234-0.13.234-1.846l0.052-15.185c0-1.794.182-2.184,0.91-2.34,0.312-.052.468-0.078,0.676-0.1,0.182-.026.286-0.078,0.286-0.182,0-.156-0.182-0.182-0.468-0.182-1.066,0-1.924.078-2.21,0.078s-1.534-.078-2.7-0.078c-0.312,0-.52.026-0.52,0.182,0,0.1.078,0.182,0.364,0.182a5.4,5.4,0,0,1,1.118.13c0.806,0.208.988,0.78,1.014,2.47l0.286,13.209c-0.832-.858-3.666-4.03-6.24-6.786-4-4.291-7.878-8.477-8.268-8.919a3.208,3.208,0,0,0-.91-0.832c-0.208,0-.286.286-0.286,1.3,0.026,5.045-.026,1.664-0.026,11.051v3.848Z"/>
  <path id="_2024" data-name="2024" class="cls-2" d="M69.649,48.377c1.092,0,1.482-.1,1.69-0.806a25.034,25.034,0,0,0,.78-3.484c0-.156-0.026-0.312-0.156-0.312-0.156,0-.234.1-0.286,0.39-0.338,1.534-1.17,2.314-3.068,2.5-0.936.1-4,.13-4.446,0.13h-1.9c-0.13,0-.182-0.078-0.052-0.182,3.224-2.756,9.048-7.566,9.048-12.948,0-2.756-1.95-5.252-5.876-5.252a10.874,10.874,0,0,0-4.576.91,0.4,0.4,0,0,0-.26.39c0,0.806.13,2.964,0.156,3.2s0.1,0.338.208,0.338c0.13,0,.208-0.156.208-0.39a3.436,3.436,0,0,1,.936-2.522,3.658,3.658,0,0,1,2.782-.988c1.742,0,4.134,1.092,4.134,4.81,0,4.992-3.874,8.58-9.074,13.209a1.138,1.138,0,0,0-.468.624,0.372,0.372,0,0,0,.364.364C60.835,48.351,64.267,48.4,69.649,48.377ZM88.63,38c0-3.406-1.4-9.594-6.266-9.594-4.238,0-6.656,4.5-6.656,10.79,0,4.654,2.106,9.594,6.24,9.594C86.263,48.793,88.63,43.983,88.63,38Zm-2.21,1.118c0,5.122-1.56,8.71-3.952,8.71-3.25,0-4.55-5.148-4.55-9.7,0-5.278,1.456-8.788,3.926-8.788C84.833,29.344,86.419,34.181,86.419,39.121Zm14.794,9.256c1.092,0,1.482-.1,1.69-0.806a25.034,25.034,0,0,0,.78-3.484c0-.156-0.026-0.312-0.156-0.312-0.156,0-.234.1-0.286,0.39-0.338,1.534-1.17,2.314-3.068,2.5-0.936.1-4,.13-4.446,0.13h-1.9c-0.13,0-.182-0.078-0.052-0.182,3.224-2.756,9.048-7.566,9.048-12.948,0-2.756-1.95-5.252-5.876-5.252a10.874,10.874,0,0,0-4.576.91,0.4,0.4,0,0,0-.26.39c0,0.806.13,2.964,0.156,3.2s0.1,0.338.208,0.338c0.13,0,.208-0.156.208-0.39a3.436,3.436,0,0,1,.936-2.522,3.658,3.658,0,0,1,2.782-.988c1.742,0,4.134,1.092,4.134,4.81,0,4.992-3.874,8.58-9.074,13.209a1.138,1.138,0,0,0-.468.624,0.372,0.372,0,0,0,.364.364C92.4,48.351,95.831,48.4,101.213,48.377ZM115.045,42.5c0,0.858,0,2.86-.052,4-0.052,1.2-.546,1.534-2.106,1.534-0.364,0-.442.1-0.442,0.208,0,0.13.13,0.182,0.416,0.182,1.43,0,2.834-.078,3.016-0.078,0.156,0,1.82.078,3.276,0.078,0.286,0,.416-0.052.416-0.182,0-.182-0.286-0.234-0.624-0.234-1.378-.052-1.768-0.468-1.872-1.508-0.1-1.144-.052-3.146-0.052-4h2.47a0.424,0.424,0,0,0,.468-0.364,6.4,6.4,0,0,0,.234-1.014c0-.13,0-0.312-0.13-0.312A2.256,2.256,0,0,1,119,41.1h-1.976V32.75c0-1.43.026-3.51,0.026-3.9,0-.26-0.078-0.442-0.26-0.442a0.862,0.862,0,0,0-.546.468c-0.832,1.144-9.282,12.584-9.438,12.767a0.954,0.954,0,0,0-.234.546c0,0.234.234,0.312,0.546,0.312h7.93Zm0-1.4h-6.656c0.442-.572,6.63-9.2,6.656-9.2v9.2Z"/>
</svg>
